<mxfile host="app.diagrams.net" agent="Mozilla/5.0 (Windows NT 10.0; Win64; x64) AppleWebKit/537.36 (KHTML, like Gecko) Chrome/140.0.0.0 Safari/537.36" version="28.2.3">
  <diagram id="l6V5DA8_vvGLn7mXlS-g" name="BTMH-Bài 4">
    <mxGraphModel dx="902" dy="1633" grid="1" gridSize="10" guides="1" tooltips="1" connect="1" arrows="1" fold="1" page="1" pageScale="1" pageWidth="827" pageHeight="1169" math="0" shadow="0">
      <root>
        <mxCell id="0" />
        <mxCell id="1" parent="0" />
        <mxCell id="0zAoLy-4UUDyewcDd4B0-1" value="" style="curved=1;endArrow=classic;html=1;rounded=0;entryX=1.06;entryY=0.221;entryDx=0;entryDy=0;entryPerimeter=0;" parent="1" target="0zAoLy-4UUDyewcDd4B0-48" edge="1">
          <mxGeometry width="50" height="50" relative="1" as="geometry">
            <mxPoint x="482.03" y="520" as="sourcePoint" />
            <mxPoint x="493.03" y="577" as="targetPoint" />
            <Array as="points">
              <mxPoint x="482.03" y="520" />
              <mxPoint x="572.03" y="550" />
            </Array>
          </mxGeometry>
        </mxCell>
        <mxCell id="0zAoLy-4UUDyewcDd4B0-2" value="" style="ellipse;html=1;shape=startState;fillColor=#000000;strokeColor=#ff0000;fontSize=19;" parent="1" vertex="1">
          <mxGeometry x="251.02999999999997" y="-922.5" width="30" height="30" as="geometry" />
        </mxCell>
        <mxCell id="0zAoLy-4UUDyewcDd4B0-3" value="" style="edgeStyle=orthogonalEdgeStyle;html=1;verticalAlign=bottom;endArrow=open;endSize=8;strokeColor=#ff0000;rounded=0;exitX=0.881;exitY=0.513;exitDx=0;exitDy=0;exitPerimeter=0;fontSize=19;" parent="1" source="0zAoLy-4UUDyewcDd4B0-2" edge="1">
          <mxGeometry relative="1" as="geometry">
            <mxPoint x="351.03" y="-907.5" as="targetPoint" />
          </mxGeometry>
        </mxCell>
        <mxCell id="0zAoLy-4UUDyewcDd4B0-4" value="" style="edgeStyle=orthogonalEdgeStyle;rounded=0;orthogonalLoop=1;jettySize=auto;html=1;fontSize=19;" parent="1" source="0zAoLy-4UUDyewcDd4B0-5" target="0zAoLy-4UUDyewcDd4B0-7" edge="1">
          <mxGeometry relative="1" as="geometry" />
        </mxCell>
        <mxCell id="0zAoLy-4UUDyewcDd4B0-5" value="Nhạn tiền" style="strokeWidth=2;html=1;shape=mxgraph.flowchart.terminator;whiteSpace=wrap;fontSize=19;" parent="1" vertex="1">
          <mxGeometry x="351.03" y="-930" width="100" height="45" as="geometry" />
        </mxCell>
        <mxCell id="0zAoLy-4UUDyewcDd4B0-6" value="" style="edgeStyle=orthogonalEdgeStyle;rounded=0;orthogonalLoop=1;jettySize=auto;html=1;fontSize=19;" parent="1" source="0zAoLy-4UUDyewcDd4B0-7" target="0zAoLy-4UUDyewcDd4B0-9" edge="1">
          <mxGeometry relative="1" as="geometry" />
        </mxCell>
        <mxCell id="0zAoLy-4UUDyewcDd4B0-7" value="Nhận thông tin sản phẩm" style="strokeWidth=2;html=1;shape=mxgraph.flowchart.terminator;whiteSpace=wrap;fontSize=19;" parent="1" vertex="1">
          <mxGeometry x="531.03" y="-930" width="210" height="45" as="geometry" />
        </mxCell>
        <mxCell id="0zAoLy-4UUDyewcDd4B0-8" value="" style="edgeStyle=orthogonalEdgeStyle;rounded=0;orthogonalLoop=1;jettySize=auto;html=1;fontSize=19;" parent="1" source="0zAoLy-4UUDyewcDd4B0-9" target="0zAoLy-4UUDyewcDd4B0-13" edge="1">
          <mxGeometry relative="1" as="geometry" />
        </mxCell>
        <mxCell id="0zAoLy-4UUDyewcDd4B0-9" value="" style="rhombus;whiteSpace=wrap;html=1;strokeWidth=2;fontSize=19;" parent="1" vertex="1">
          <mxGeometry x="596.03" y="-822.5" width="80" height="60" as="geometry" />
        </mxCell>
        <mxCell id="0zAoLy-4UUDyewcDd4B0-10" value="" style="edgeStyle=orthogonalEdgeStyle;rounded=0;orthogonalLoop=1;jettySize=auto;html=1;fontSize=19;" parent="1" source="0zAoLy-4UUDyewcDd4B0-13" target="0zAoLy-4UUDyewcDd4B0-15" edge="1">
          <mxGeometry relative="1" as="geometry" />
        </mxCell>
        <mxCell id="0zAoLy-4UUDyewcDd4B0-11" value="" style="edgeStyle=orthogonalEdgeStyle;rounded=0;orthogonalLoop=1;jettySize=auto;html=1;fontSize=19;" parent="1" source="0zAoLy-4UUDyewcDd4B0-13" target="0zAoLy-4UUDyewcDd4B0-20" edge="1">
          <mxGeometry relative="1" as="geometry" />
        </mxCell>
        <mxCell id="0zAoLy-4UUDyewcDd4B0-12" value="" style="edgeStyle=orthogonalEdgeStyle;rounded=0;orthogonalLoop=1;jettySize=auto;html=1;fontSize=19;" parent="1" source="0zAoLy-4UUDyewcDd4B0-13" target="0zAoLy-4UUDyewcDd4B0-22" edge="1">
          <mxGeometry relative="1" as="geometry" />
        </mxCell>
        <mxCell id="0zAoLy-4UUDyewcDd4B0-13" value="" style="rhombus;whiteSpace=wrap;html=1;strokeWidth=2;fontSize=19;" parent="1" vertex="1">
          <mxGeometry x="596.03" y="-682.5" width="80" height="60" as="geometry" />
        </mxCell>
        <mxCell id="0zAoLy-4UUDyewcDd4B0-14" value="" style="edgeStyle=orthogonalEdgeStyle;rounded=0;orthogonalLoop=1;jettySize=auto;html=1;fontSize=19;" parent="1" source="0zAoLy-4UUDyewcDd4B0-15" target="0zAoLy-4UUDyewcDd4B0-18" edge="1">
          <mxGeometry relative="1" as="geometry" />
        </mxCell>
        <mxCell id="0zAoLy-4UUDyewcDd4B0-15" value="" style="rhombus;whiteSpace=wrap;html=1;strokeWidth=2;fontSize=19;" parent="1" vertex="1">
          <mxGeometry x="596.03" y="-542.5" width="80" height="60" as="geometry" />
        </mxCell>
        <mxCell id="0zAoLy-4UUDyewcDd4B0-16" value="" style="edgeStyle=orthogonalEdgeStyle;rounded=0;orthogonalLoop=1;jettySize=auto;html=1;fontSize=19;" parent="1" source="0zAoLy-4UUDyewcDd4B0-18" target="0zAoLy-4UUDyewcDd4B0-27" edge="1">
          <mxGeometry relative="1" as="geometry" />
        </mxCell>
        <mxCell id="0zAoLy-4UUDyewcDd4B0-17" value="" style="edgeStyle=orthogonalEdgeStyle;rounded=0;orthogonalLoop=1;jettySize=auto;html=1;fontSize=19;" parent="1" source="0zAoLy-4UUDyewcDd4B0-18" target="0zAoLy-4UUDyewcDd4B0-30" edge="1">
          <mxGeometry relative="1" as="geometry" />
        </mxCell>
        <mxCell id="0zAoLy-4UUDyewcDd4B0-18" value="" style="rhombus;whiteSpace=wrap;html=1;strokeWidth=2;fontSize=19;" parent="1" vertex="1">
          <mxGeometry x="596.03" y="-402.5" width="80" height="60" as="geometry" />
        </mxCell>
        <mxCell id="0zAoLy-4UUDyewcDd4B0-19" value="" style="edgeStyle=orthogonalEdgeStyle;rounded=0;orthogonalLoop=1;jettySize=auto;html=1;entryX=1;entryY=0.5;entryDx=0;entryDy=0;fontSize=19;" parent="1" source="0zAoLy-4UUDyewcDd4B0-20" target="0zAoLy-4UUDyewcDd4B0-15" edge="1">
          <mxGeometry relative="1" as="geometry">
            <mxPoint x="886.03" y="-542.5" as="targetPoint" />
            <Array as="points">
              <mxPoint x="886.03" y="-512.5" />
            </Array>
          </mxGeometry>
        </mxCell>
        <mxCell id="0zAoLy-4UUDyewcDd4B0-20" value="TÍnh số tiền dư" style="strokeWidth=2;html=1;shape=mxgraph.flowchart.terminator;whiteSpace=wrap;fontSize=19;" parent="1" vertex="1">
          <mxGeometry x="801.03" y="-682.5" width="170" height="60" as="geometry" />
        </mxCell>
        <mxCell id="0zAoLy-4UUDyewcDd4B0-21" value="" style="edgeStyle=orthogonalEdgeStyle;rounded=0;orthogonalLoop=1;jettySize=auto;html=1;fontSize=19;" parent="1" source="0zAoLy-4UUDyewcDd4B0-22" target="0zAoLy-4UUDyewcDd4B0-25" edge="1">
          <mxGeometry relative="1" as="geometry" />
        </mxCell>
        <mxCell id="0zAoLy-4UUDyewcDd4B0-22" value="THông báo không đủ tiền" style="strokeWidth=2;html=1;shape=mxgraph.flowchart.terminator;whiteSpace=wrap;fontSize=19;" parent="1" vertex="1">
          <mxGeometry x="341.03" y="-682.5" width="170" height="60" as="geometry" />
        </mxCell>
        <mxCell id="0zAoLy-4UUDyewcDd4B0-23" value="" style="edgeStyle=orthogonalEdgeStyle;rounded=0;orthogonalLoop=1;jettySize=auto;html=1;entryX=0;entryY=0.5;entryDx=0;entryDy=0;fontSize=19;" parent="1" source="0zAoLy-4UUDyewcDd4B0-25" target="0zAoLy-4UUDyewcDd4B0-28" edge="1">
          <mxGeometry relative="1" as="geometry">
            <mxPoint x="426.03" y="-402.5" as="targetPoint" />
            <Array as="points">
              <mxPoint x="426.03" y="-87.5" />
            </Array>
          </mxGeometry>
        </mxCell>
        <mxCell id="0zAoLy-4UUDyewcDd4B0-24" value="" style="edgeStyle=orthogonalEdgeStyle;rounded=0;orthogonalLoop=1;jettySize=auto;html=1;entryX=0;entryY=0.5;entryDx=0;entryDy=0;fontSize=19;" parent="1" source="0zAoLy-4UUDyewcDd4B0-25" target="0zAoLy-4UUDyewcDd4B0-9" edge="1">
          <mxGeometry relative="1" as="geometry">
            <mxPoint x="306.03" y="-512.5" as="targetPoint" />
            <Array as="points">
              <mxPoint x="321.03" y="-512.5" />
              <mxPoint x="321.03" y="-792.5" />
            </Array>
          </mxGeometry>
        </mxCell>
        <mxCell id="0zAoLy-4UUDyewcDd4B0-25" value="" style="rhombus;whiteSpace=wrap;html=1;strokeWidth=2;fontSize=19;" parent="1" vertex="1">
          <mxGeometry x="386.03" y="-542.5" width="80" height="60" as="geometry" />
        </mxCell>
        <mxCell id="0zAoLy-4UUDyewcDd4B0-26" value="" style="edgeStyle=orthogonalEdgeStyle;rounded=0;orthogonalLoop=1;jettySize=auto;html=1;entryX=0.5;entryY=0;entryDx=0;entryDy=0;fontSize=19;" parent="1" source="0zAoLy-4UUDyewcDd4B0-27" target="0zAoLy-4UUDyewcDd4B0-28" edge="1">
          <mxGeometry relative="1" as="geometry">
            <mxPoint x="636.03" y="-97.5" as="targetPoint" />
          </mxGeometry>
        </mxCell>
        <mxCell id="0zAoLy-4UUDyewcDd4B0-27" value="Cập nhật lại số lượng" style="strokeWidth=2;html=1;shape=mxgraph.flowchart.terminator;whiteSpace=wrap;fontSize=19;" parent="1" vertex="1">
          <mxGeometry x="541.03" y="-252.5" width="190" height="50" as="geometry" />
        </mxCell>
        <mxCell id="0zAoLy-4UUDyewcDd4B0-28" value="" style="ellipse;html=1;shape=endState;fillColor=#000000;strokeColor=#ff0000;fontSize=19;" parent="1" vertex="1">
          <mxGeometry x="621.03" y="-102.5" width="30" height="30" as="geometry" />
        </mxCell>
        <mxCell id="0zAoLy-4UUDyewcDd4B0-29" value="" style="edgeStyle=orthogonalEdgeStyle;rounded=0;orthogonalLoop=1;jettySize=auto;html=1;fontSize=19;" parent="1" source="0zAoLy-4UUDyewcDd4B0-30" target="0zAoLy-4UUDyewcDd4B0-32" edge="1">
          <mxGeometry relative="1" as="geometry" />
        </mxCell>
        <mxCell id="0zAoLy-4UUDyewcDd4B0-30" value="Thông báo &quot;SOLD OUT&quot;" style="strokeWidth=2;html=1;shape=mxgraph.flowchart.terminator;whiteSpace=wrap;fontSize=19;" parent="1" vertex="1">
          <mxGeometry x="792.03" y="-402.5" width="170" height="60" as="geometry" />
        </mxCell>
        <mxCell id="0zAoLy-4UUDyewcDd4B0-31" value="" style="edgeStyle=orthogonalEdgeStyle;rounded=0;orthogonalLoop=1;jettySize=auto;html=1;fontSize=19;" parent="1" source="0zAoLy-4UUDyewcDd4B0-32" target="0zAoLy-4UUDyewcDd4B0-35" edge="1">
          <mxGeometry relative="1" as="geometry" />
        </mxCell>
        <mxCell id="0zAoLy-4UUDyewcDd4B0-32" value="Liệt kê các sản phẩm gợi ý" style="strokeWidth=2;html=1;shape=mxgraph.flowchart.terminator;whiteSpace=wrap;fontSize=19;" parent="1" vertex="1">
          <mxGeometry x="767.53" y="-272.5" width="219" height="60" as="geometry" />
        </mxCell>
        <mxCell id="0zAoLy-4UUDyewcDd4B0-33" value="" style="edgeStyle=orthogonalEdgeStyle;rounded=0;orthogonalLoop=1;jettySize=auto;html=1;entryX=1;entryY=0.5;entryDx=0;entryDy=0;fontSize=19;" parent="1" source="0zAoLy-4UUDyewcDd4B0-35" target="0zAoLy-4UUDyewcDd4B0-28" edge="1">
          <mxGeometry relative="1" as="geometry">
            <mxPoint x="717.03" y="-87.5" as="targetPoint" />
          </mxGeometry>
        </mxCell>
        <mxCell id="0zAoLy-4UUDyewcDd4B0-34" value="" style="edgeStyle=orthogonalEdgeStyle;rounded=0;orthogonalLoop=1;jettySize=auto;html=1;entryX=1;entryY=0.5;entryDx=0;entryDy=0;fontSize=19;" parent="1" source="0zAoLy-4UUDyewcDd4B0-35" target="0zAoLy-4UUDyewcDd4B0-9" edge="1">
          <mxGeometry relative="1" as="geometry">
            <mxPoint x="997.03" y="-87.5" as="targetPoint" />
            <Array as="points">
              <mxPoint x="1021.03" y="-87.5" />
              <mxPoint x="1021.03" y="-792.5" />
            </Array>
          </mxGeometry>
        </mxCell>
        <mxCell id="0zAoLy-4UUDyewcDd4B0-35" value="" style="rhombus;whiteSpace=wrap;html=1;strokeWidth=2;fontSize=19;" parent="1" vertex="1">
          <mxGeometry x="837.03" y="-117.5" width="80" height="60" as="geometry" />
        </mxCell>
        <mxCell id="0zAoLy-4UUDyewcDd4B0-36" value="[Nạp thêm tiền]" style="text;html=1;align=center;verticalAlign=middle;resizable=0;points=[];autosize=1;strokeColor=none;fillColor=none;fontSize=19;" parent="1" vertex="1">
          <mxGeometry x="366.03" y="-829.5" width="150" height="40" as="geometry" />
        </mxCell>
        <mxCell id="0zAoLy-4UUDyewcDd4B0-37" value="[Chọn sản phẩm khác]" style="text;html=1;align=center;verticalAlign=middle;resizable=0;points=[];autosize=1;strokeColor=none;fillColor=none;fontSize=19;" parent="1" vertex="1">
          <mxGeometry x="716.03" y="-827.5" width="210" height="40" as="geometry" />
        </mxCell>
        <mxCell id="0zAoLy-4UUDyewcDd4B0-38" value="[else]" style="text;html=1;align=center;verticalAlign=middle;resizable=0;points=[];autosize=1;strokeColor=none;fillColor=none;fontSize=19;" parent="1" vertex="1">
          <mxGeometry x="526.03" y="-689.5" width="70" height="40" as="geometry" />
        </mxCell>
        <mxCell id="0zAoLy-4UUDyewcDd4B0-39" value="[Input&amp;gt;price]" style="text;html=1;align=center;verticalAlign=middle;resizable=0;points=[];autosize=1;strokeColor=none;fillColor=none;fontSize=19;" parent="1" vertex="1">
          <mxGeometry x="666.03" y="-649.5" width="130" height="40" as="geometry" />
        </mxCell>
        <mxCell id="0zAoLy-4UUDyewcDd4B0-40" value="[Input=price]" style="text;html=1;align=center;verticalAlign=middle;resizable=0;points=[];autosize=1;strokeColor=none;fillColor=none;fontSize=19;" parent="1" vertex="1">
          <mxGeometry x="531.03" y="-605" width="130" height="40" as="geometry" />
        </mxCell>
        <mxCell id="0zAoLy-4UUDyewcDd4B0-41" value="[Lấy lại tiền]" style="text;html=1;align=center;verticalAlign=middle;resizable=0;points=[];autosize=1;strokeColor=none;fillColor=none;fontSize=19;" parent="1" vertex="1">
          <mxGeometry x="326.03" y="-337.5" width="120" height="40" as="geometry" />
        </mxCell>
        <mxCell id="0zAoLy-4UUDyewcDd4B0-42" value="[Lấy lại tiền]" style="text;html=1;align=center;verticalAlign=middle;resizable=0;points=[];autosize=1;strokeColor=none;fillColor=none;fontSize=19;" parent="1" vertex="1">
          <mxGeometry x="687.03" y="-127.5" width="120" height="40" as="geometry" />
        </mxCell>
        <mxCell id="0zAoLy-4UUDyewcDd4B0-43" value="[else]" style="text;html=1;align=center;verticalAlign=middle;resizable=0;points=[];autosize=1;strokeColor=none;fillColor=none;fontSize=19;" parent="1" vertex="1">
          <mxGeometry x="696.03" y="-407.5" width="70" height="40" as="geometry" />
        </mxCell>
        <mxCell id="0zAoLy-4UUDyewcDd4B0-44" value="[Đủ số lượng]" style="text;html=1;align=center;verticalAlign=middle;resizable=0;points=[];autosize=1;strokeColor=none;fillColor=none;fontSize=19;" parent="1" vertex="1">
          <mxGeometry x="521.03" y="-329.5" width="140" height="40" as="geometry" />
        </mxCell>
        <mxCell id="0zAoLy-4UUDyewcDd4B0-45" value="" style="shape=umlLifeline;perimeter=lifelinePerimeter;whiteSpace=wrap;html=1;container=1;dropTarget=0;collapsible=0;recursiveResize=0;outlineConnect=0;portConstraint=eastwest;newEdgeStyle={&quot;curved&quot;:0,&quot;rounded&quot;:0};participant=umlActor;size=100;" parent="1" vertex="1">
          <mxGeometry x="242.02999999999997" y="60" width="50" height="810" as="geometry" />
        </mxCell>
        <mxCell id="0zAoLy-4UUDyewcDd4B0-46" value="Man hinh" style="shape=umlLifeline;perimeter=lifelinePerimeter;whiteSpace=wrap;html=1;container=1;dropTarget=0;collapsible=0;recursiveResize=0;outlineConnect=0;portConstraint=eastwest;newEdgeStyle={&quot;curved&quot;:0,&quot;rounded&quot;:0};" parent="1" vertex="1">
          <mxGeometry x="403.03" y="100" width="154" height="770" as="geometry" />
        </mxCell>
        <mxCell id="0zAoLy-4UUDyewcDd4B0-47" value="" style="html=1;points=[[0,0,0,0,5],[0,1,0,0,-5],[1,0,0,0,5],[1,1,0,0,-5]];perimeter=orthogonalPerimeter;outlineConnect=0;targetShapes=umlLifeline;portConstraint=eastwest;newEdgeStyle={&quot;curved&quot;:0,&quot;rounded&quot;:0};" parent="0zAoLy-4UUDyewcDd4B0-46" vertex="1">
          <mxGeometry x="72" y="90" width="10" height="80" as="geometry" />
        </mxCell>
        <mxCell id="0zAoLy-4UUDyewcDd4B0-48" value="" style="html=1;points=[[0,0,0,0,5],[0,1,0,0,-5],[1,0,0,0,5],[1,1,0,0,-5]];perimeter=orthogonalPerimeter;outlineConnect=0;targetShapes=umlLifeline;portConstraint=eastwest;newEdgeStyle={&quot;curved&quot;:0,&quot;rounded&quot;:0};" parent="0zAoLy-4UUDyewcDd4B0-46" vertex="1">
          <mxGeometry x="72" y="480" width="10" height="100" as="geometry" />
        </mxCell>
        <mxCell id="0zAoLy-4UUDyewcDd4B0-49" value="" style="html=1;points=[[0,0,0,0,5],[0,1,0,0,-5],[1,0,0,0,5],[1,1,0,0,-5]];perimeter=orthogonalPerimeter;outlineConnect=0;targetShapes=umlLifeline;portConstraint=eastwest;newEdgeStyle={&quot;curved&quot;:0,&quot;rounded&quot;:0};" parent="0zAoLy-4UUDyewcDd4B0-46" vertex="1">
          <mxGeometry x="72" y="345" width="10" height="80" as="geometry" />
        </mxCell>
        <mxCell id="0zAoLy-4UUDyewcDd4B0-50" value="Register" style="shape=umlLifeline;perimeter=lifelinePerimeter;whiteSpace=wrap;html=1;container=1;dropTarget=0;collapsible=0;recursiveResize=0;outlineConnect=0;portConstraint=eastwest;newEdgeStyle={&quot;curved&quot;:0,&quot;rounded&quot;:0};" parent="1" vertex="1">
          <mxGeometry x="753.03" y="100" width="154" height="770" as="geometry" />
        </mxCell>
        <mxCell id="0zAoLy-4UUDyewcDd4B0-51" value="" style="html=1;points=[[0,0,0,0,5],[0,1,0,0,-5],[1,0,0,0,5],[1,1,0,0,-5]];perimeter=orthogonalPerimeter;outlineConnect=0;targetShapes=umlLifeline;portConstraint=eastwest;newEdgeStyle={&quot;curved&quot;:0,&quot;rounded&quot;:0};" parent="0zAoLy-4UUDyewcDd4B0-50" vertex="1">
          <mxGeometry x="72" y="170" width="10" height="120" as="geometry" />
        </mxCell>
        <mxCell id="0zAoLy-4UUDyewcDd4B0-52" value="" style="html=1;points=[[0,0,0,0,5],[0,1,0,0,-5],[1,0,0,0,5],[1,1,0,0,-5]];perimeter=orthogonalPerimeter;outlineConnect=0;targetShapes=umlLifeline;portConstraint=eastwest;newEdgeStyle={&quot;curved&quot;:0,&quot;rounded&quot;:0};" parent="1" vertex="1">
          <mxGeometry x="397.03" y="410" width="10" height="80" as="geometry" />
        </mxCell>
        <mxCell id="0zAoLy-4UUDyewcDd4B0-53" value="Insert(input)" style="html=1;verticalAlign=bottom;endArrow=block;curved=0;rounded=0;" parent="1" edge="1">
          <mxGeometry width="80" relative="1" as="geometry">
            <mxPoint x="265.7118181818182" y="220" as="sourcePoint" />
            <mxPoint x="472.03" y="220" as="targetPoint" />
          </mxGeometry>
        </mxCell>
        <mxCell id="0zAoLy-4UUDyewcDd4B0-54" value="Select(Selection)" style="html=1;verticalAlign=bottom;endArrow=block;curved=0;rounded=0;" parent="1" edge="1">
          <mxGeometry width="80" relative="1" as="geometry">
            <mxPoint x="266.8848387096775" y="250" as="sourcePoint" />
            <mxPoint x="472.03" y="250" as="targetPoint" />
          </mxGeometry>
        </mxCell>
        <mxCell id="0zAoLy-4UUDyewcDd4B0-55" value="Send(Input, Selection)" style="html=1;verticalAlign=bottom;endArrow=block;curved=0;rounded=0;" parent="1" edge="1">
          <mxGeometry width="80" relative="1" as="geometry">
            <mxPoint x="477.02571428571423" y="270" as="sourcePoint" />
            <mxPoint x="826.74" y="270" as="targetPoint" />
          </mxGeometry>
        </mxCell>
        <mxCell id="0zAoLy-4UUDyewcDd4B0-56" value="Price:" style="html=1;verticalAlign=bottom;endArrow=open;dashed=1;endSize=8;curved=0;rounded=0;" parent="1" edge="1">
          <mxGeometry relative="1" as="geometry">
            <mxPoint x="1162.0299999999997" y="360" as="sourcePoint" />
            <mxPoint x="833.2892592592593" y="360" as="targetPoint" />
          </mxGeometry>
        </mxCell>
        <mxCell id="0zAoLy-4UUDyewcDd4B0-57" value="Get(Selectiom)" style="html=1;verticalAlign=bottom;endArrow=block;curved=0;rounded=0;" parent="1" edge="1">
          <mxGeometry width="80" relative="1" as="geometry">
            <mxPoint x="832.03" y="300" as="sourcePoint" />
            <mxPoint x="1152.0299999999997" y="300.0000000000002" as="targetPoint" />
            <mxPoint as="offset" />
          </mxGeometry>
        </mxCell>
        <mxCell id="0zAoLy-4UUDyewcDd4B0-58" value="" style="html=1;verticalAlign=bottom;endArrow=block;curved=0;rounded=0;" parent="1" source="0zAoLy-4UUDyewcDd4B0-52" edge="1">
          <mxGeometry width="80" relative="1" as="geometry">
            <mxPoint x="722.03" y="414.08422071636005" as="sourcePoint" />
            <mxPoint x="1158.5299999999997" y="420" as="targetPoint" />
          </mxGeometry>
        </mxCell>
        <mxCell id="0zAoLy-4UUDyewcDd4B0-59" value="[So luong khong du]:SoldOut(list)" style="html=1;verticalAlign=bottom;endArrow=none;curved=0;rounded=0;endFill=0;" parent="1" target="0zAoLy-4UUDyewcDd4B0-63" edge="1">
          <mxGeometry width="80" relative="1" as="geometry">
            <mxPoint x="482.4915384615383" y="463.23" as="sourcePoint" />
            <mxPoint x="1152.0299999999997" y="463" as="targetPoint" />
          </mxGeometry>
        </mxCell>
        <mxCell id="0zAoLy-4UUDyewcDd4B0-60" value="" style="curved=1;endArrow=classic;html=1;rounded=0;entryX=1.1;entryY=0.432;entryDx=0;entryDy=0;entryPerimeter=0;" parent="1" target="0zAoLy-4UUDyewcDd4B0-64" edge="1">
          <mxGeometry width="50" height="50" relative="1" as="geometry">
            <mxPoint x="1162.0299999999997" y="464" as="sourcePoint" />
            <mxPoint x="1172.0299999999997" y="544" as="targetPoint" />
            <Array as="points">
              <mxPoint x="1162.0299999999997" y="464" />
              <mxPoint x="1252.0299999999997" y="494" />
            </Array>
          </mxGeometry>
        </mxCell>
        <mxCell id="0zAoLy-4UUDyewcDd4B0-61" value="Database" style="shape=umlLifeline;perimeter=lifelinePerimeter;whiteSpace=wrap;html=1;container=1;dropTarget=0;collapsible=0;recursiveResize=0;outlineConnect=0;portConstraint=eastwest;newEdgeStyle={&quot;curved&quot;:0,&quot;rounded&quot;:0};" parent="1" vertex="1">
          <mxGeometry x="1082.0299999999997" y="100" width="154" height="770" as="geometry" />
        </mxCell>
        <mxCell id="0zAoLy-4UUDyewcDd4B0-62" value="" style="html=1;points=[[0,0,0,0,5],[0,1,0,0,-5],[1,0,0,0,5],[1,1,0,0,-5]];perimeter=orthogonalPerimeter;outlineConnect=0;targetShapes=umlLifeline;portConstraint=eastwest;newEdgeStyle={&quot;curved&quot;:0,&quot;rounded&quot;:0};" parent="0zAoLy-4UUDyewcDd4B0-61" vertex="1">
          <mxGeometry x="72" y="200" width="10" height="60" as="geometry" />
        </mxCell>
        <mxCell id="0zAoLy-4UUDyewcDd4B0-63" value="" style="html=1;points=[[0,0,0,0,5],[0,1,0,0,-5],[1,0,0,0,5],[1,1,0,0,-5]];perimeter=orthogonalPerimeter;outlineConnect=0;targetShapes=umlLifeline;portConstraint=eastwest;newEdgeStyle={&quot;curved&quot;:0,&quot;rounded&quot;:0};" parent="0zAoLy-4UUDyewcDd4B0-61" vertex="1">
          <mxGeometry x="72" y="320" width="10" height="160" as="geometry" />
        </mxCell>
        <mxCell id="0zAoLy-4UUDyewcDd4B0-64" value="" style="html=1;points=[[0,0,0,0,5],[0,1,0,0,-5],[1,0,0,0,5],[1,1,0,0,-5]];perimeter=orthogonalPerimeter;outlineConnect=0;targetShapes=umlLifeline;portConstraint=eastwest;newEdgeStyle={&quot;curved&quot;:0,&quot;rounded&quot;:0};" parent="0zAoLy-4UUDyewcDd4B0-61" vertex="1">
          <mxGeometry x="80" y="410" width="10" height="25" as="geometry" />
        </mxCell>
        <mxCell id="0zAoLy-4UUDyewcDd4B0-65" value="[Input&amp;gt;Price]:Change()" style="html=1;verticalAlign=bottom;endArrow=block;curved=0;rounded=0;" parent="1" source="0zAoLy-4UUDyewcDd4B0-46" edge="1">
          <mxGeometry width="80" relative="1" as="geometry">
            <mxPoint x="1067.5299999999997" y="609.6999178061715" as="sourcePoint" />
            <mxPoint x="1156.8499999999995" y="580" as="targetPoint" />
          </mxGeometry>
        </mxCell>
        <mxCell id="0zAoLy-4UUDyewcDd4B0-66" value="" style="endArrow=none;dashed=1;html=1;rounded=0;entryX=0.481;entryY=0.321;entryDx=0;entryDy=0;entryPerimeter=0;" parent="1" target="0zAoLy-4UUDyewcDd4B0-46" edge="1">
          <mxGeometry width="50" height="50" relative="1" as="geometry">
            <mxPoint x="407.03" y="410" as="sourcePoint" />
            <mxPoint x="462.03" y="370" as="targetPoint" />
          </mxGeometry>
        </mxCell>
        <mxCell id="0zAoLy-4UUDyewcDd4B0-67" value="" style="endArrow=none;dashed=1;html=1;rounded=0;entryX=1;entryY=1;entryDx=0;entryDy=-5;entryPerimeter=0;exitX=0.483;exitY=0.577;exitDx=0;exitDy=0;exitPerimeter=0;" parent="1" source="0zAoLy-4UUDyewcDd4B0-46" target="0zAoLy-4UUDyewcDd4B0-52" edge="1">
          <mxGeometry width="50" height="50" relative="1" as="geometry">
            <mxPoint x="402.03" y="590" as="sourcePoint" />
            <mxPoint x="452.03" y="540" as="targetPoint" />
          </mxGeometry>
        </mxCell>
        <mxCell id="0zAoLy-4UUDyewcDd4B0-68" value="" style="curved=1;endArrow=classic;html=1;rounded=0;entryX=0.481;entryY=0.689;entryDx=0;entryDy=0;entryPerimeter=0;" parent="1" target="0zAoLy-4UUDyewcDd4B0-46" edge="1">
          <mxGeometry width="50" height="50" relative="1" as="geometry">
            <mxPoint x="392.03" y="490" as="sourcePoint" />
            <mxPoint x="352.03" y="630" as="targetPoint" />
            <Array as="points">
              <mxPoint x="332.03" y="580" />
            </Array>
          </mxGeometry>
        </mxCell>
        <mxCell id="0zAoLy-4UUDyewcDd4B0-69" value="[Input&amp;gt;=Price]:Check(Selection)" style="text;html=1;align=center;verticalAlign=middle;resizable=0;points=[];autosize=1;strokeColor=none;fillColor=none;" parent="1" vertex="1">
          <mxGeometry x="902.03" y="398" width="190" height="30" as="geometry" />
        </mxCell>
        <mxCell id="0zAoLy-4UUDyewcDd4B0-70" value="[Rut tien]:Withdraw()" style="text;html=1;align=center;verticalAlign=middle;resizable=0;points=[];autosize=1;strokeColor=none;fillColor=none;" parent="1" vertex="1">
          <mxGeometry x="522.03" y="538" width="130" height="30" as="geometry" />
        </mxCell>
        <mxCell id="0zAoLy-4UUDyewcDd4B0-71" value="[Rut tien]:Withdraw()" style="text;html=1;align=center;verticalAlign=middle;resizable=0;points=[];autosize=1;strokeColor=none;fillColor=none;" parent="1" vertex="1">
          <mxGeometry x="252.02999999999997" y="530" width="130" height="30" as="geometry" />
        </mxCell>
        <mxCell id="0zAoLy-4UUDyewcDd4B0-72" value="&lt;span style=&quot;color: rgb(0, 0, 0); font-family: Helvetica; font-size: 12px; font-style: normal; font-variant-ligatures: normal; font-variant-caps: normal; font-weight: 400; letter-spacing: normal; orphans: 2; text-align: center; text-indent: 0px; text-transform: none; widows: 2; word-spacing: 0px; -webkit-text-stroke-width: 0px; white-space: nowrap; background-color: rgb(236, 236, 236); text-decoration-thickness: initial; text-decoration-style: initial; text-decoration-color: initial; display: inline !important; float: none;&quot;&gt;[Input&amp;lt;Price]:Thongbao()&lt;/span&gt;" style="text;whiteSpace=wrap;html=1;" parent="1" vertex="1">
          <mxGeometry x="582.03" y="400" width="170" height="40" as="geometry" />
        </mxCell>
        <mxCell id="0zAoLy-4UUDyewcDd4B0-73" value="Bài 4:" style="text;html=1;align=center;verticalAlign=middle;resizable=0;points=[];autosize=1;strokeColor=none;fillColor=none;fontFamily=Helvetica;fontSize=28;fontColor=#CC0000;labelBackgroundColor=default;fontStyle=1" parent="1" vertex="1">
          <mxGeometry x="210" y="-990" width="100" height="50" as="geometry" />
        </mxCell>
      </root>
    </mxGraphModel>
  </diagram>
</mxfile>
